<?xml version="1.0" encoding="utf-8"?>
<!-- Generator: Adobe Illustrator 18.1.1, SVG Export Plug-In . SVG Version: 6.00 Build 0)  -->
<svg version="1.1" id="Layer_1" xmlns="http://www.w3.org/2000/svg" xmlns:xlink="http://www.w3.org/1999/xlink" x="0px" y="0px"
	 viewBox="0 0 500 500" enable-background="new 0 0 500 500" xml:space="preserve">
<g>
	<g>
		<path fill="#7152A1" d="M315.6,315.1c12.6-1.3,22.1-12.1,21.7-25.1c-0.4-13-11.2-23.5-24.3-23.5h-0.9
			c-13.5,0.4-23.8,11.7-23.5,25.1c0.4,6.5,3,12.1,7,16.1c-14.7,29.1-37.3,50.3-71.1,68c-23,12.1-46.8,16.5-70.7,13.5
			c-19.5-2.6-34.7-11.2-44.2-25.6c-13.9-21.2-15.2-44.2-3.5-67.2c8.2-16.5,21.2-28.6,29.5-34.7c-1.7-5.6-4.4-15.2-5.6-22.1
			c-62.9,45.5-56.4,107.1-37.3,136.2C107,397.6,136,411,168.1,411c8.6,0,17.3-0.9,26-3C249.7,397,291.7,364.1,315.6,315.1z"/>
	</g>
	<g>
		<path fill="#7152A1" d="M391.9,261.3c-33-38.6-81.5-59.8-137-59.8h-7c-3.9-7.9-12.1-13-21.2-13h-0.9
			c-13.5,0.4-23.8,11.7-23.5,25.1c0.4,13,11.2,23.5,24.3,23.5h0.9c9.5-0.4,17.7-6.5,21.2-14.7h7.9c33,0,64.2,9.5,92.4,28.2
			c21.7,14.3,37.3,33,45.9,55.5c7.4,18.2,7,36-0.9,51.2c-12.1,23-32.6,35.6-59.4,35.6c-17.3,0-33.8-5.2-42.4-9.1
			c-4.7,4.4-13.5,11.2-19.5,15.6c18.6,8.6,37.7,13.5,55.9,13.5c41.6,0,72.4-23,84.1-45.9C425.3,341.6,424.4,298.2,391.9,261.3
			L391.9,261.3z"/>
	</g>
	<g>
		<path fill="#7152A1" d="M171.6,322.5c0.4,13,11.2,23.5,24.3,23.5h0.9c13.5-0.4,23.8-11.7,23.5-25.1c-0.4-13-11.2-23.5-24.3-23.5
			h-0.9c-0.9,0-2.1,0-3,0.4c-17.7-29.5-25.1-61.5-22.6-96.2c1.7-26,10.4-48.6,25.6-67.2c12.6-16.1,36.8-23.8,53.3-24.3
			c45.9-0.9,65.5,56.4,66.8,79.4c5.6,1.3,15.2,4.4,21.7,6.5c-5.2-70.3-48.6-106.7-90.2-106.7c-39.1,0-75,28.2-89.4,69.8
			c-20,55.5-7,108.8,17.3,150.9C172.5,312.9,171.3,317.6,171.6,322.5L171.6,322.5z"/>
	</g>
	<g>
		<path fill="#9D89C0" d="M317.3,89.2c-1.8,0-3.7-0.7-5.2-2c-18.9-17.3-41.5-26.4-65.5-26.4c-22,0-43.6,7.3-62.3,21
			c-3.4,2.5-8.2,1.7-10.8-1.6s-1.7-8.2,1.6-10.8c21.4-15.7,46.1-24,71.4-24c27.5,0,54.5,10.8,75.9,30.4c3.2,2.9,3.4,7.8,0.5,11
			C321.6,88.3,319.4,89.2,317.3,89.2z"/>
	</g>
	<g>
		<path fill="#D8D0E6" d="M346,71.7c-2.1,0-4.3-0.9-5.8-2.6c-0.5-0.6-1-1.1-1.5-1.6c-0.5-0.6-1-1.2-1.4-1.6
			c-24.6-26.4-56.9-40.9-90.7-40.9c-33.2,0-65.7,13.4-91.3,37.6c-3.1,2.9-7.9,2.8-11-0.3c-2.9-3.1-2.8-7.9,0.3-11
			c28.5-27,64.7-41.9,102-41.9c38.3,0,74.5,16.3,102.1,45.8c0.8,0.9,1.5,1.6,2,2.4c0.4,0.4,0.7,0.9,1.1,1.3c2.8,3.2,2.5,8-0.7,11
			C349.7,71,347.8,71.7,346,71.7z"/>
	</g>
	<g>
		<path fill="#9D89C0" d="M384.4,448.4c-3.1,0-6.1-1.9-7.3-5c-1.5-4,0.6-8.4,4.6-9.9c25.3-9.4,46.8-27.4,57.5-48.4
			c8.7-17.4,11.5-39.3,7.9-61.2c-0.7-4.2,2.1-8.2,6.4-8.9c4.2-0.7,8.1,2.1,8.9,6.4c4.2,25.3,0.9,50.4-9.3,70.7
			c-12.4,24.3-37,45.3-65.9,55.9C386.1,448.2,385.2,448.4,384.4,448.4z"/>
	</g>
	<g>
		<path fill="#D8D0E6" d="M373.2,490.6c-3.8,0-7.1-2.7-7.7-6.6c-0.7-4.3,2.2-8.1,6.5-8.8c52.4-8,86.8-41.9,100.4-68.4
			c14.2-28.6,16-65.9,4.6-99.9c-1.4-4.1,0.8-8.4,4.8-9.8s8.4,0.8,9.8,4.8c12.8,37.8,10.8,79.6-5.3,111.8
			c-9.1,17.9-24.1,35-42.3,48.3c-20.4,14.8-44.4,24.7-69.6,28.5C374.1,490.6,373.6,490.6,373.2,490.6z"/>
	</g>
	<g>
		<path fill="#9D89C0" d="M117,448.4c-0.8,0-1.6-0.1-2.3-0.4c-25.7-8.2-47.1-23.6-60.2-43.5c-14.8-22.5-21.3-53.6-17.3-83.2
			c0.6-4.3,4.5-7.2,8.7-6.7c4.3,0.6,7.2,4.5,6.7,8.7c-3.5,26,2.1,53.1,14.9,72.6c11.1,16.9,29.6,30.1,51.9,37.3
			c4.1,1.3,6.3,5.6,5,9.7C123.4,446.3,120.3,448.4,117,448.4z"/>
	</g>
	<g>
		<path fill="#D8D0E6" d="M127.2,489.4c-0.3,0-0.7,0-1-0.1c-43.5-5.5-82.2-28.1-103.4-60.4c-10.2-15.3-17.5-35-20.8-55.5
			c-3.8-23.7-2-48.2,4.9-70.8c1.3-4.1,5.6-6.4,9.7-5.1c4.1,1.3,6.4,5.6,5.1,9.7c-14.2,46.3-1.5,90,14,113.4
			C54.5,449,89.1,469,128.1,474c4.3,0.6,7.3,4.4,6.7,8.6C134.3,486.6,130.9,489.4,127.2,489.4z"/>
	</g>
</g>
<g>
	<path fill="none" stroke="#9D89C0" stroke-width="8.3477" stroke-linecap="round" stroke-miterlimit="10" d="M250,250"/>
</g>
</svg>
