<?xml version="1.0" encoding="UTF-8" standalone="no"?>
<!-- Generator: Adobe Illustrator 18.1.1, SVG Export Plug-In . SVG Version: 6.00 Build 0)  -->

<svg
   xmlns:dc="http://purl.org/dc/elements/1.1/"
   xmlns:cc="http://creativecommons.org/ns#"
   xmlns:rdf="http://www.w3.org/1999/02/22-rdf-syntax-ns#"
   xmlns:svg="http://www.w3.org/2000/svg"
   xmlns="http://www.w3.org/2000/svg"
   xmlns:sodipodi="http://sodipodi.sourceforge.net/DTD/sodipodi-0.dtd"
   xmlns:inkscape="http://www.inkscape.org/namespaces/inkscape"
   version="1.1"
   id="Layer_1"
   x="0px"
   y="0px"
   viewBox="0 0 329.1 168.4"
   enable-background="new 0 0 329.1 168.4"
   xml:space="preserve"
   inkscape:version="0.91 r13725"
   sodipodi:docname="redux-beacon-logo-dark-centred.svg"><metadata
     id="metadata95"><rdf:RDF><cc:Work
         rdf:about=""><dc:format>image/svg+xml</dc:format><dc:type
           rdf:resource="http://purl.org/dc/dcmitype/StillImage" /></cc:Work></rdf:RDF></metadata><defs
     id="defs93" /><sodipodi:namedview
     pagecolor="#ffffff"
     bordercolor="#666666"
     borderopacity="1"
     objecttolerance="10"
     gridtolerance="10"
     guidetolerance="10"
     inkscape:pageopacity="0"
     inkscape:pageshadow="2"
     inkscape:window-width="1440"
     inkscape:window-height="805"
     id="namedview91"
     showgrid="false"
     inkscape:zoom="0.66606836"
     inkscape:cx="-214.60808"
     inkscape:cy="-255.51614"
     inkscape:window-x="0"
     inkscape:window-y="1"
     inkscape:window-maximized="1"
     inkscape:current-layer="Layer_1" /><g
     id="g3"
     transform="matrix(2.9061829,0,0,2.9061829,-586.22009,239.53869)"><g
       id="g5"><path
         d="m 179,69.4 c 2.8,-0.3 4.9,-2.7 4.8,-5.5 -0.1,-2.9 -2.5,-5.2 -5.3,-5.2 l -0.2,0 c -3,0.1 -5.2,2.6 -5.2,5.5 0.1,1.4 0.7,2.7 1.5,3.5 -3.2,6.4 -8.2,11.1 -15.6,15 -5.1,2.7 -10.3,3.6 -15.6,3 -4.3,-0.6 -7.6,-2.5 -9.7,-5.6 -3.1,-4.7 -3.3,-9.7 -0.8,-14.8 1.8,-3.6 4.7,-6.3 6.5,-7.6 -0.4,-1.2 -1,-3.3 -1.2,-4.9 -13.8,10 -12.4,23.6 -8.2,30 3.1,4.8 9.5,7.7 16.6,7.7 1.9,0 3.8,-0.2 5.7,-0.7 12.2,-2.4 21.5,-9.6 26.7,-20.4 z"
         id="path7"
         inkscape:connector-curvature="0"
         style="fill:#7152a1" /></g><g
       id="g9"><path
         d="M 195.8,57.6 C 188.5,49.1 177.9,44.4 165.6,44.4 l -1.5,0 c -0.9,-1.7 -2.7,-2.9 -4.7,-2.9 l -0.2,0 c -3,0.1 -5.2,2.6 -5.2,5.5 0.1,2.9 2.5,5.2 5.3,5.2 l 0.2,0 c 2.1,-0.1 3.9,-1.4 4.7,-3.2 l 1.7,0 c 7.3,0 14.1,2.1 20.3,6.2 4.8,3.1 8.2,7.3 10.1,12.2 1.6,4 1.5,7.9 -0.2,11.3 -2.7,5.1 -7.2,7.8 -13.1,7.8 -3.8,0 -7.4,-1.1 -9.4,-2 -1,1 -3,2.5 -4.3,3.4 4.1,1.9 8.3,3 12.3,3 9.2,0 15.9,-5.1 18.5,-10.1 3,-5.6 2.9,-15.1 -4.3,-23.2 l 0,0 z"
         id="path11"
         inkscape:connector-curvature="0"
         style="fill:#7152a1" /></g><g
       id="g13"><path
         d="m 147.3,71 c 0.1,2.9 2.5,5.2 5.3,5.2 l 0.2,0 c 3,-0.1 5.2,-2.6 5.2,-5.5 -0.1,-2.9 -2.5,-5.2 -5.3,-5.2 l -0.2,0 c -0.2,0 -0.5,0 -0.7,0.1 -3.9,-6.5 -5.5,-13.6 -5,-21.2 0.4,-5.7 2.3,-10.7 5.6,-14.8 2.8,-3.5 8.1,-5.2 11.7,-5.3 10.1,-0.2 14.4,12.4 14.7,17.5 1.2,0.3 3.3,1 4.8,1.4 -1.1,-15.5 -10.7,-23.5 -19.8,-23.5 -8.6,0 -16.5,6.2 -19.7,15.4 -4.4,12.2 -1.5,24 3.8,33.2 -0.4,0.6 -0.7,1.7 -0.6,2.7 l 0,0 z"
         id="path15"
         inkscape:connector-curvature="0"
         style="fill:#7152a1" /></g><g
       id="g17"><path
         d="m 179.4,19.7 c -0.4,0 -0.8,-0.1 -1.1,-0.4 -4.2,-3.8 -9.1,-5.8 -14.4,-5.8 -4.8,0 -9.6,1.6 -13.7,4.6 -0.8,0.6 -1.8,0.4 -2.4,-0.4 -0.6,-0.8 -0.4,-1.8 0.4,-2.4 4.7,-3.5 10.1,-5.3 15.7,-5.3 6.1,0 12,2.4 16.7,6.7 0.7,0.6 0.7,1.7 0.1,2.4 -0.4,0.4 -0.8,0.6 -1.3,0.6 z"
         id="path19"
         inkscape:connector-curvature="0"
         style="fill:#9d89c0" /></g><g
       id="g21"><path
         d="m 185.7,15.8 c -0.5,0 -0.9,-0.2 -1.3,-0.6 -0.1,-0.1 -0.2,-0.2 -0.3,-0.4 -0.1,-0.1 -0.2,-0.2 -0.3,-0.4 -5.4,-5.8 -12.5,-9 -20,-9 -7.3,0 -14.5,2.9 -20.1,8.3 -0.7,0.6 -1.8,0.6 -2.4,-0.1 -0.6,-0.7 -0.6,-1.8 0.1,-2.4 6.3,-5.9 14.2,-9.2 22.4,-9.2 8.4,0 16.4,3.6 22.5,10.1 0.2,0.2 0.3,0.3 0.5,0.5 0.1,0.1 0.2,0.2 0.2,0.3 0.6,0.7 0.5,1.8 -0.2,2.4 -0.3,0.4 -0.7,0.5 -1.1,0.5 z"
         id="path23"
         inkscape:connector-curvature="0"
         style="fill:#d8d0e6" /></g><g
       id="g25"><path
         d="m 194.1,98.7 c -0.7,0 -1.3,-0.4 -1.6,-1.1 -0.3,-0.9 0.1,-1.9 1,-2.2 5.6,-2.1 10.3,-6 12.7,-10.7 1.9,-3.8 2.5,-8.6 1.7,-13.5 -0.2,-0.9 0.5,-1.8 1.4,-2 0.9,-0.2 1.8,0.5 2,1.4 0.9,5.6 0.2,11.1 -2,15.6 -2.7,5.4 -8.2,10 -14.5,12.3 -0.3,0.2 -0.5,0.2 -0.7,0.2 z"
         id="path27"
         inkscape:connector-curvature="0"
         style="fill:#9d89c0" /></g><g
       id="g29"><path
         d="m 191.7,108 c -0.8,0 -1.5,-0.6 -1.7,-1.4 -0.1,-0.9 0.5,-1.8 1.4,-1.9 11.5,-1.8 19.1,-9.2 22.1,-15.1 3.1,-6.3 3.5,-14.5 1,-22 -0.3,-0.9 0.2,-1.9 1.1,-2.2 0.9,-0.3 1.9,0.2 2.2,1.1 2.8,8.3 2.4,17.5 -1.2,24.6 -3.3,6.6 -11.8,14.9 -24.6,16.9 -0.1,0 -0.2,0 -0.3,0 z"
         id="path31"
         inkscape:connector-curvature="0"
         style="fill:#d8d0e6" /></g><g
       id="g33"><path
         d="m 135.3,98.7 c -0.2,0 -0.3,0 -0.5,-0.1 -5.7,-1.8 -10.4,-5.2 -13.2,-9.6 -3.3,-5 -4.7,-11.8 -3.8,-18.3 0.1,-0.9 1,-1.6 1.9,-1.5 0.9,0.1 1.6,1 1.5,1.9 -0.8,5.7 0.5,11.7 3.3,16 2.5,3.7 6.5,6.6 11.4,8.2 0.9,0.3 1.4,1.2 1.1,2.1 -0.3,0.9 -1,1.3 -1.7,1.3 z"
         id="path35"
         inkscape:connector-curvature="0"
         style="fill:#9d89c0" /></g><g
       id="g37"><path
         d="m 137.5,107.8 c -0.1,0 -0.1,0 -0.2,0 -9.6,-1.2 -18.1,-6.2 -22.8,-13.3 -3.8,-5.8 -7,-16.5 -3.5,-27.8 0.3,-0.9 1.2,-1.4 2.1,-1.1 0.9,0.3 1.4,1.2 1.1,2.1 -3.1,10.2 -0.3,19.8 3.1,25 4.1,6.3 11.8,10.7 20.4,11.8 0.9,0.1 1.6,1 1.5,1.9 -0.1,0.7 -0.8,1.4 -1.7,1.4 z"
         id="path39"
         inkscape:connector-curvature="0"
         style="fill:#d8d0e6" /></g></g><g
     id="g41"
     transform="translate(-289.42701,405.06515)"><path
       stroke-miterlimit="10"
       d="M 134.3,14.7"
       id="path43"
       inkscape:connector-curvature="0"
       style="fill:none;stroke:#9d89c0;stroke-width:2.08139992;stroke-linecap:round;stroke-miterlimit:10" /></g><g
     id="g45"
     transform="translate(-272.51168,459.06515)"
     inkscape:export-filename="/Users/marek/Desktop/redux-beacon/logo/redux-beacon-text.png"
     inkscape:export-xdpi="90"
     inkscape:export-ydpi="90"><g
       id="g47"><path
         d="m 8.5,149.3 0,14.7 -6.2,0 0,-36.3 14,0 c 7.5,0 12.4,3.8 12.4,10.9 0,6.1 -3.6,9.6 -9.3,10.5 L 30,164 l -7,0 -10.1,-14.7 -4.4,0 z m 0,-5.1 7.7,0 c 4.1,0 6.4,-2.2 6.4,-5.6 0,-3.4 -2.3,-5.6 -6.4,-5.6 l -7.7,0 0,11.2 z"
         id="path49"
         inkscape:connector-curvature="0"
         style="fill:#404041" /></g><g
       id="g51"><path
         d="m 56.2,155.9 c -0.9,5.2 -4.7,8.8 -11.1,8.8 -7.3,0 -12.4,-5.6 -12.4,-13.7 0,-7.9 5.1,-13.8 12.3,-13.8 7.4,0 11.4,5.3 11.4,13 l 0,2.1 -17.9,0 c 0.2,4.6 2.8,7.4 6.6,7.4 2.8,0 5,-1.2 5.6,-3.8 l 5.5,0 z m -17.5,-8 11.9,0 c -0.1,-3.2 -1.9,-5.8 -5.5,-5.8 -3.3,0 -5.7,2.1 -6.4,5.8 z"
         id="path53"
         inkscape:connector-curvature="0"
         style="fill:#404041" /></g><g
       id="g55"><path
         d="m 79.1,161.8 c -1.2,1.5 -3.8,2.8 -6.7,2.8 -7.7,0 -12.2,-6.2 -12.2,-13.7 0,-7.5 4.5,-13.7 12.2,-13.7 2.9,0 5.5,1.4 6.7,2.8 l 0,-14.4 5.9,0 0,38.4 -5.9,0 0,-2.2 z m 0,-15.9 c -1,-2.1 -3.3,-3.5 -5.7,-3.5 -4.6,0 -7.3,3.6 -7.3,8.5 0,4.9 2.7,8.5 7.3,8.5 2.4,0 4.7,-1.4 5.7,-3.5 l 0,-10 z"
         id="path57"
         inkscape:connector-curvature="0"
         style="fill:#404041" /></g><g
       id="g59"><path
         d="m 114.1,164 -5.9,0 0,-2.5 c -1.4,1.7 -4,3.1 -7,3.1 -6,0 -9.2,-4 -9.2,-9.8 l 0,-17.1 5.9,0 0,16.1 c 0,3.3 1.5,5.4 4.9,5.4 2.5,0 4.8,-1.6 5.4,-4.2 l 0,-17.3 5.9,0 0,26.3 z"
         id="path61"
         inkscape:connector-curvature="0"
         style="fill:#404041" /></g><g
       id="g63"><path
         d="m 134.8,150.3 9.8,13.7 -6.7,0 -6.5,-9.3 -6.6,9.3 -6.3,0 9.8,-13.5 -9.1,-12.8 6.7,0 5.7,8.3 5.9,-8.3 6.3,0 -9,12.6 z"
         id="path65"
         inkscape:connector-curvature="0"
         style="fill:#404041" /></g><g
       id="g67"><path
         d="m 188.6,153.6 c 0,6.8 -4.7,10.4 -12.3,10.4 l -13.9,0 0,-36.3 12.7,0 c 7.6,0 12.3,3.4 12.3,9.9 0,3.9 -2.1,6.7 -4.7,7.7 3.4,1.1 5.9,4.5 5.9,8.3 z M 175.1,143 c 4.2,0 6.4,-1.6 6.4,-5 0,-3.4 -2.2,-4.9 -6.4,-4.9 l -6.7,0 0,9.9 6.7,0 z m -6.7,15.7 7.8,0 c 4.1,0 6.4,-2.1 6.4,-5.3 0,-3.3 -2.2,-5.3 -6.4,-5.3 l -7.8,0 0,10.6 z"
         id="path69"
         inkscape:connector-curvature="0"
         style="fill:#404041" /></g><g
       id="g71"><path
         d="m 216.3,155.9 c -0.9,5.2 -4.7,8.8 -11.1,8.8 -7.3,0 -12.4,-5.6 -12.4,-13.7 0,-7.9 5.1,-13.8 12.3,-13.8 7.4,0 11.4,5.3 11.4,13 l 0,2.1 -17.9,0 c 0.2,4.6 2.8,7.4 6.6,7.4 2.8,0 5,-1.2 5.6,-3.8 l 5.5,0 z m -17.5,-8 11.9,0 c -0.1,-3.2 -1.9,-5.8 -5.5,-5.8 -3.3,0 -5.7,2.1 -6.4,5.8 z"
         id="path73"
         inkscape:connector-curvature="0"
         style="fill:#404041" /></g><g
       id="g75"><path
         d="m 236.6,164 0,-1.5 c -0.9,0.9 -3.5,2 -6.5,2 -5.4,0 -9.8,-3.2 -9.8,-8.6 0,-5 4.4,-8.5 10.2,-8.5 2.4,0 5,0.8 6.1,1.6 l 0,-2.1 c 0,-2.7 -1.7,-4.7 -5,-4.7 -2.4,0 -3.8,1 -4.5,2.8 l -5.7,0 c 0.8,-4.5 4.9,-7.9 10.3,-7.9 6.6,0 10.5,3.7 10.5,9.6 l 0,17.3 -5.6,0 z m 0,-9.1 c -0.6,-1.7 -3,-2.7 -5.4,-2.7 -2.7,0 -5.4,1.1 -5.4,3.7 0,2.7 2.8,3.8 5.4,3.8 2.4,0 4.7,-1 5.4,-2.7 l 0,-2.1 z"
         id="path77"
         inkscape:connector-curvature="0"
         style="fill:#404041" /></g><g
       id="g79"><path
         d="m 259.6,137.2 c 6.3,0 10.2,3.6 11,8.8 l -5.9,0 c -0.5,-2.4 -2.4,-3.7 -5,-3.7 -4,0 -6.4,3.6 -6.4,8.6 0,5 2.4,8.6 6.4,8.6 2.6,0 4.6,-1.3 5,-3.7 l 5.9,0 c -0.8,5.3 -4.7,8.8 -11,8.8 -7.1,0 -12.2,-5.6 -12.2,-13.7 0,-8.1 5.1,-13.7 12.2,-13.7 z"
         id="path81"
         inkscape:connector-curvature="0"
         style="fill:#404041" /></g><g
       id="g83"><path
         d="m 286.5,164.6 c -7.4,0 -12.5,-5.7 -12.5,-13.7 0,-8 5.1,-13.7 12.5,-13.7 7.4,0 12.5,5.7 12.5,13.7 0,8 -5.1,13.7 -12.5,13.7 z m 0,-22.3 c -4.3,0 -6.6,3.7 -6.6,8.6 0,5 2.3,8.6 6.6,8.6 4.3,0 6.6,-3.7 6.6,-8.6 0,-5 -2.3,-8.6 -6.6,-8.6 z"
         id="path85"
         inkscape:connector-curvature="0"
         style="fill:#404041" /></g><g
       id="g87"><path
         d="m 304.5,137.8 5.9,0 0,2.5 c 1.4,-1.7 4,-3.1 7.1,-3.1 6,0 9.3,4 9.3,9.8 l 0,17 -5.9,0 0,-16.1 c 0,-3.3 -1.6,-5.4 -5,-5.4 -2.5,0 -4.9,1.6 -5.5,4.2 l 0,17.3 -5.9,0 0,-26.2 z"
         id="path89"
         inkscape:connector-curvature="0"
         style="fill:#404041" /></g></g></svg>